<svg width="200" height="62" viewBox="0 0 200 62" fill="none" xmlns="http://www.w3.org/2000/svg">
<g clip-path="url(#clip0_799_23235)">
<path d="M76.9727 50.772V42.2773H82.1384V43.1148H77.9228V46.0496H81.4065V46.866H77.9228V49.9345H82.1384V50.772H76.9727Z" fill="#C10230"/>
<path d="M84.6172 50.772V42.2773H86.3907L89.6422 49.9345H89.8955V42.2773H90.8316V50.772H89.1003L85.7995 43.1148H85.5673V50.772H84.6172Z" fill="#C10230"/>
<path d="M97.1355 47.2727V46.4282H99.4791V50.6016C98.4515 50.7987 97.5296 50.8972 96.7202 50.8972C95.4816 50.8972 94.63 50.5383 94.1515 49.8274C93.6729 49.1166 93.4336 48.0187 93.4336 46.5338C93.4336 45.0488 93.6729 43.9438 94.1515 43.233C94.63 42.5152 95.4816 42.1562 96.6991 42.1562C97.4592 42.1562 98.2475 42.2407 99.0709 42.4026L99.4861 42.48L99.4509 43.2682C98.4375 43.0993 97.5577 43.0078 96.8117 43.0078C95.8687 43.0078 95.2423 43.2753 94.9115 43.8242C94.5808 44.3661 94.4189 45.267 94.4189 46.5338C94.4189 47.8006 94.5808 48.7014 94.9115 49.2433C95.2423 49.7852 95.8687 50.0597 96.8047 50.0597C97.3748 50.0597 97.9589 50.0034 98.5571 49.8908V47.2798H97.1495L97.1355 47.2727Z" fill="#C10230"/>
<path d="M103.131 42.2773H102.188V50.772H103.131V42.2773Z" fill="#C10230"/>
<path d="M106.066 50.772V42.2773H107.84L111.091 49.9345H111.345V42.2773H112.281V50.772H110.549L107.249 43.1148H107.017V50.772H106.066Z" fill="#C10230"/>
<path d="M115.223 50.772V42.2773H120.388V43.1148H116.166V46.0496H119.649V46.866H116.166V49.9345H120.388V50.772H115.223Z" fill="#C10230"/>
<path d="M122.867 50.772V42.2773H128.033V43.1148H123.817V46.0496H127.301V46.866H123.817V49.9345H128.033V50.772H122.867Z" fill="#C10230"/>
<path d="M131.459 47.5205V50.772H130.516V42.2773H133.654C134.555 42.2773 135.231 42.4885 135.688 42.9037C136.146 43.3189 136.371 43.9735 136.371 44.8532C136.371 46.1622 135.85 46.9856 134.816 47.3234L136.448 50.772H135.407L133.873 47.5205H131.466H131.459ZM133.669 46.683C134.823 46.683 135.4 46.0848 135.4 44.8954C135.4 43.706 134.816 43.1078 133.654 43.1078H131.459V46.676H133.669V46.683Z" fill="#C10230"/>
<path d="M139.869 42.2773H138.926V50.772H139.869V42.2773Z" fill="#C10230"/>
<path d="M142.812 50.772V42.2773H144.579L147.83 49.9345H148.084V42.2773H149.02V50.772H147.289L143.988 43.1148H143.756V50.772H142.812Z" fill="#C10230"/>
<path d="M155.322 47.2727V46.4282H157.666V50.6016C156.631 50.7987 155.716 50.8972 154.9 50.8972C153.668 50.8972 152.81 50.5383 152.331 49.8274C151.853 49.1166 151.613 48.0187 151.613 46.5338C151.613 45.0488 151.853 43.9438 152.331 43.233C152.81 42.5152 153.661 42.1562 154.879 42.1562C155.639 42.1562 156.427 42.2407 157.244 42.4026L157.659 42.48L157.624 43.2682C156.61 43.0993 155.73 43.0078 154.984 43.0078C154.041 43.0078 153.408 43.2753 153.084 43.8242C152.753 44.3661 152.592 45.267 152.592 46.5338C152.592 47.8006 152.753 48.7014 153.084 49.2433C153.415 49.7852 154.041 50.0597 154.97 50.0597C155.54 50.0597 156.125 50.0034 156.723 49.8908V47.2798H155.315L155.322 47.2727Z" fill="#C10230"/>
<path d="M82.4778 14.7083C80.092 14.7083 78.9026 15.4966 78.9026 17.073C78.9026 17.7768 79.1982 18.3117 79.7894 18.6847C80.3806 19.0577 81.76 19.5926 83.9417 20.2963C86.1164 20.9931 87.6436 21.7884 88.5233 22.6751C89.396 23.5619 89.8323 24.9272 89.8323 26.7641C89.8323 29.1077 89.1215 30.8812 87.6999 32.0776C86.2782 33.2811 84.4203 33.8863 82.1189 33.8863C80.4087 33.8863 78.3185 33.6259 75.8482 33.0981L74.6659 32.8658L75.1233 29.354C78.0581 29.7481 80.2961 29.9452 81.8515 29.9452C84.1739 29.9452 85.3281 28.981 85.3281 27.0597C85.3281 26.3629 85.0607 25.814 84.5258 25.4199C83.9909 25.0257 82.9212 24.5964 81.3236 24.139C78.783 23.4141 76.9954 22.5555 75.9538 21.5631C74.9192 20.5638 74.3984 19.1844 74.3984 17.4109C74.3984 15.1799 75.0741 13.519 76.4324 12.4211C77.7907 11.3302 79.6486 10.7812 82.0133 10.7812C83.632 10.7812 85.6871 10.9994 88.1855 11.4358L89.3678 11.668L89.0089 15.2432C85.9193 14.8913 83.7446 14.7154 82.4778 14.7154" fill="#00263E"/>
<path d="M96.8205 33.4781H92.4219V17.066H96.7853V17.9879C98.2984 17.1153 99.5863 16.6719 100.656 16.6719C102.43 16.6719 103.795 17.1856 104.759 18.2132C106.772 17.1856 108.609 16.6719 110.277 16.6719C112.444 16.6719 113.95 17.3053 114.788 18.558C115.633 19.8178 116.048 21.8235 116.048 24.5824V33.4781H111.649V24.7161C111.649 23.3156 111.494 22.281 111.192 21.6124C110.882 20.9438 110.27 20.613 109.355 20.613C108.658 20.613 107.799 20.7679 106.793 21.0705L106.3 21.2324C106.385 22.8722 106.427 24.1179 106.427 24.9765V33.4781H102.028V25.0468C102.028 23.4282 101.888 22.288 101.599 21.6194C101.311 20.9509 100.691 20.6201 99.7271 20.6201C98.8755 20.6201 98.031 20.7749 97.2005 21.0775L96.8064 21.2113V33.4852L96.8205 33.4781Z" fill="#00263E"/>
<path d="M131.875 22.1895V29.0162C131.917 29.544 132.009 29.91 132.136 30.1141C132.269 30.3252 132.537 30.473 132.959 30.5574L132.825 33.8722C131.706 33.8722 130.812 33.7948 130.151 33.64C129.482 33.4852 128.807 33.1825 128.131 32.718C126.555 33.4852 124.95 33.8722 123.303 33.8722C119.911 33.8722 118.215 32.0776 118.215 28.4883C118.215 26.7359 118.686 25.4973 119.629 24.7653C120.573 24.0334 122.015 23.6041 123.965 23.4704L127.477 23.21V22.1895C127.477 21.5139 127.322 21.0494 127.019 20.796C126.709 20.5427 126.217 20.416 125.541 20.416L119.369 20.6764L119.235 17.622C121.579 16.9886 123.803 16.6719 125.914 16.6719C128.026 16.6719 129.546 17.1082 130.475 17.9879C131.404 18.8606 131.868 20.2611 131.868 22.1895M124.493 26.5177C123.268 26.6304 122.656 27.2849 122.656 28.4883C122.656 29.6918 123.191 30.297 124.267 30.297C125.098 30.297 126.006 30.1633 126.991 29.9029L127.484 29.7692V26.2573L124.5 26.5177H124.493Z" fill="#00263E"/>
<path d="M135.504 33.4781V17.066H139.867V18.8043C141.704 17.7135 143.457 16.9956 145.118 16.6719V21.1057C143.344 21.4787 141.824 21.8587 140.557 22.2528L139.903 22.4851V33.4781H135.504Z" fill="#00263E"/>
<path d="M156.803 20.8124H152.763V27.5405C152.763 28.1951 152.777 28.6595 152.812 28.934C152.847 29.2085 152.967 29.4478 153.171 29.6378C153.375 29.8349 153.699 29.9334 154.142 29.9334L156.634 29.87L156.831 33.3819C155.367 33.7127 154.248 33.8746 153.481 33.8746C151.51 33.8746 150.166 33.4312 149.441 32.5444C148.716 31.6576 148.357 30.0249 148.357 27.6391V20.8124H146.422V17.0683H148.357V12.5078H152.756V17.0683H156.796V20.8124H156.803Z" fill="#00263E"/>
<path d="M160.32 10.5H164.719V14.962H160.32V10.5ZM160.32 17.0663H164.719V33.4784H160.32V17.0663Z" fill="#00263E"/>
<path d="M172.61 33.4781H168.211V17.066H172.574V17.9879C174.059 17.1153 175.432 16.6719 176.677 16.6719C178.866 16.6719 180.372 17.3194 181.21 18.6073C182.04 19.8952 182.455 21.8869 182.455 24.5824V33.4781H178.057V24.7161C178.057 23.3156 177.895 22.281 177.564 21.6124C177.233 20.9438 176.579 20.613 175.594 20.613C174.7 20.613 173.834 20.7679 173.004 21.0705L172.61 21.2042V33.4781Z" fill="#00263E"/>
<path d="M199.999 35.5323C199.999 37.4044 199.274 38.7838 197.831 39.6846C196.389 40.5784 194.432 41.0288 191.969 41.0288C189.506 41.0288 187.612 40.6981 186.289 40.0435C184.966 39.389 184.305 38.1926 184.305 36.4683C184.305 35.0889 185.093 33.7869 186.669 32.5624C185.86 32.0134 185.459 31.183 185.459 30.064C185.459 29.6276 185.79 28.9027 186.444 27.8963L186.74 27.4389C185.248 26.3691 184.509 24.7856 184.509 22.6954C184.509 20.6052 185.135 19.092 186.395 18.149C187.655 17.2059 189.323 16.7344 191.399 16.7344C192.342 16.7344 193.271 16.8399 194.186 17.0652L194.714 17.1637L199.999 17.0018V20.5137L197.536 20.3166C198.014 21.0626 198.261 21.8016 198.261 22.5476C198.261 24.7363 197.705 26.2424 196.586 27.0799C195.467 27.9104 193.721 28.3256 191.335 28.3256C190.829 28.3256 190.385 28.2834 189.991 28.1919C189.773 28.762 189.66 29.2265 189.66 29.5854C189.66 29.9443 189.843 30.1906 190.216 30.3244C190.589 30.4581 191.462 30.5355 192.842 30.5566C195.6 30.5777 197.479 30.9437 198.486 31.6545C199.492 32.3653 199.999 33.6603 199.999 35.5253M188.64 36.0039C188.64 36.9469 189.794 37.4184 192.103 37.4184C194.411 37.4184 195.565 36.8695 195.565 35.7786C195.565 35.1875 195.368 34.8074 194.974 34.6456C194.58 34.4837 193.749 34.3922 192.476 34.3711L189.52 34.1388C188.929 34.73 188.633 35.3493 188.633 36.0109M188.907 22.5687C188.907 24.1804 189.745 24.9827 191.42 24.9827C193.095 24.9827 193.932 24.1804 193.932 22.5687C193.932 20.957 193.095 20.1547 191.42 20.1547C189.745 20.1547 188.907 20.957 188.907 22.5687Z" fill="#00263E"/>
<path d="M8.9943 8.99293C20.9797 -2.99243 40.418 -2.99243 52.4034 8.99293C64.3958 20.9783 64.3958 40.4167 52.4034 52.4091C40.418 64.3944 20.9797 64.3944 8.9943 52.4091C-2.9981 40.4167 -2.9981 20.9783 8.9943 8.99293Z" fill="#C10230"/>
<path d="M46.765 24.1734C43.211 20.6264 37.4329 20.6264 33.8859 24.1734L24.3004 33.7589C23.47 34.5894 22.3721 35.0468 21.1967 35.0468C20.0214 35.0468 18.9165 34.5894 18.086 33.7589C16.3759 32.0487 16.3759 29.2547 18.086 27.5445L29.6843 15.9463C31.1834 16.3193 32.8373 15.9181 34.0126 14.7498C35.8002 12.9622 35.8002 10.0697 34.0126 8.28211C32.225 6.49451 29.3324 6.49451 27.5519 8.28211C26.3766 9.45742 25.9824 11.1113 26.3484 12.6103L14.7501 24.2086C11.2031 27.7627 11.2031 33.5407 14.7501 37.0878C16.4744 38.8121 18.7617 39.7551 21.1897 39.7551C23.6178 39.7551 25.9121 38.805 27.6293 37.0878L37.2148 27.5023C38.9249 25.7921 41.7119 25.7921 43.4291 27.5023C45.1393 29.2125 45.1393 32.0065 43.4291 33.7167L31.7394 45.3994C30.2755 45.0827 28.6779 45.4909 27.5448 46.631C25.7572 48.4186 25.7572 51.3112 27.5448 53.0917C29.3324 54.8793 32.225 54.8793 34.0055 53.0917C35.216 51.8812 35.6031 50.164 35.1738 48.6298L46.765 37.0456C50.3191 33.4915 50.3191 27.7135 46.765 24.1594" fill="white"/>
</g>
<defs>
<clipPath id="clip0_799_23235">
<rect width="200" height="61.3977" fill="white"/>
</clipPath>
</defs>
</svg>
